<svg width="133" height="31" viewBox="0 0 133 31" fill="none" xmlns="http://www.w3.org/2000/svg">
<path d="M26.3528 16.0334C27.0772 16.069 27.6429 16.6872 27.5295 17.4036C27.3079 18.8039 26.843 20.1583 26.1525 21.4042C25.2493 23.034 23.9841 24.4349 22.4544 25.499C20.9247 26.5631 19.1713 27.262 17.329 27.542C15.9207 27.7561 14.4892 27.7209 13.0993 27.4416C12.3882 27.2987 12.0053 26.5534 12.2239 25.8618V25.8618C12.4425 25.1702 13.1801 24.7964 13.8951 24.9181C14.8975 25.0888 15.9236 25.0988 16.9344 24.9452C18.3793 24.7256 19.7547 24.1774 20.9545 23.3428C22.1543 22.5081 23.1466 21.4093 23.8551 20.131C24.3507 19.2367 24.6982 18.2712 24.8868 17.2721C25.0213 16.5594 25.6283 15.9978 26.3528 16.0334V16.0334Z" fill="white"/>
<path d="M13.1475 22.2807C12.2417 24.8912 9.27632 26.3288 7.2446 24.4561C7.14831 24.3673 7.05337 24.2769 6.95984 24.1849C6.8663 24.093 6.77434 23.9996 6.68397 23.9048C4.7773 21.9048 6.16485 18.9157 8.75979 17.9662L12.5538 16.578C13.0534 16.3952 13.5964 16.6772 13.9757 17.0501V17.0501V17.0501C14.355 17.4231 14.646 17.9613 14.4717 18.4639L13.1475 22.2807Z" fill="white"/>
<path d="M4.94527 18.0861C4.24078 18.2587 3.52226 17.8276 3.4265 17.1086C3.2637 15.8863 3.28713 14.6437 3.49826 13.4236C3.78421 11.7712 4.4083 10.1956 5.33144 8.79555C6.25458 7.3955 7.45688 6.20116 8.86302 5.28734C10.2692 4.37352 11.8489 3.75991 13.5032 3.48495C15.1575 3.20998 16.8507 3.27958 18.4769 3.6894C20.103 4.09921 21.627 4.84041 22.9534 5.86655C24.2799 6.8927 25.3801 8.18169 26.1852 9.65278C26.7796 10.739 27.2038 11.9071 27.4451 13.1164C27.5871 13.8277 27.0467 14.4681 26.3242 14.5327V14.5327C25.6018 14.5973 24.9728 14.0604 24.8098 13.3537C24.6138 12.5037 24.3018 11.6826 23.8811 10.9138C23.2496 9.75994 22.3866 8.74891 21.3462 7.94405C20.3059 7.13918 19.1105 6.55782 17.835 6.23638C16.5595 5.91494 15.2314 5.86035 13.9338 6.07602C12.6363 6.29169 11.3972 6.77298 10.2943 7.48974C9.19138 8.2065 8.24835 9.14329 7.52428 10.2414C6.80021 11.3396 6.3107 12.5754 6.08641 13.8715C5.93698 14.735 5.90743 15.6129 5.99691 16.4806C6.07131 17.2021 5.64976 17.9135 4.94527 18.0861V18.0861Z" fill="white"/>
<path d="M36.82 23V9H41.89C42.8833 9 43.76 9.17333 44.52 9.52C45.2867 9.86 45.8867 10.3533 46.32 11C46.7533 11.64 46.97 12.41 46.97 13.31C46.97 14.2367 46.77 15.02 46.37 15.66C45.97 16.2933 45.3867 16.7767 44.62 17.11C43.86 17.4367 42.9333 17.6 41.84 17.6H39.06V23H36.82ZM39.06 15.68H41.87C42.7767 15.68 43.48 15.49 43.98 15.11C44.48 14.7233 44.73 14.14 44.73 13.36C44.73 12.5867 44.4733 11.9933 43.96 11.58C43.4467 11.1667 42.7567 10.96 41.89 10.96H39.06V15.68ZM51.9558 23.3C51.2691 23.3 50.6658 23.1733 50.1458 22.92C49.6258 22.66 49.2191 22.2967 48.9258 21.83C48.6391 21.3567 48.4958 20.8 48.4958 20.16C48.4958 19.62 48.6324 19.1333 48.9058 18.7C49.1791 18.26 49.6024 17.8967 50.1758 17.61C50.7558 17.3233 51.4991 17.1333 52.4058 17.04C53.3124 16.94 54.4024 16.9533 55.6758 17.08L55.7158 18.6C54.8091 18.4733 54.0291 18.42 53.3758 18.44C52.7224 18.46 52.1858 18.5433 51.7658 18.69C51.3524 18.83 51.0458 19.02 50.8458 19.26C50.6524 19.4933 50.5558 19.7633 50.5558 20.07C50.5558 20.55 50.7258 20.92 51.0658 21.18C51.4124 21.44 51.8858 21.57 52.4858 21.57C52.9991 21.57 53.4591 21.4767 53.8658 21.29C54.2724 21.1033 54.5924 20.84 54.8258 20.5C55.0658 20.16 55.1858 19.76 55.1858 19.3V16.67C55.1858 16.23 55.0924 15.85 54.9058 15.53C54.7191 15.2033 54.4358 14.95 54.0558 14.77C53.6758 14.59 53.2024 14.5 52.6358 14.5C52.1158 14.5 51.6024 14.58 51.0958 14.74C50.5891 14.8933 50.1058 15.1367 49.6458 15.47L49.0258 13.85C49.6458 13.43 50.2924 13.1333 50.9658 12.96C51.6391 12.7867 52.2858 12.7 52.9058 12.7C53.8258 12.7 54.6124 12.8467 55.2658 13.14C55.9258 13.4267 56.4324 13.8633 56.7858 14.45C57.1391 15.03 57.3158 15.7633 57.3158 16.65V23H55.3358V21.83C55.0024 22.3033 54.5391 22.6667 53.9458 22.92C53.3524 23.1733 52.6891 23.3 51.9558 23.3ZM60.2409 23V13.1H62.4409V14.47C62.8143 13.85 63.2676 13.4167 63.8009 13.17C64.3343 12.9167 64.9076 12.79 65.5209 12.79C65.7209 12.79 65.9109 12.8 66.0909 12.82C66.2709 12.84 66.4443 12.87 66.6109 12.91L66.3209 15.18C66.1209 15.12 65.9176 15.0733 65.7109 15.04C65.5043 15.0067 65.2976 14.99 65.0909 14.99C64.3243 14.99 63.6909 15.2267 63.1909 15.7C62.6909 16.1667 62.4409 16.8033 62.4409 17.61V23H60.2409ZM71.7841 23.29C70.9641 23.29 70.1974 23.1733 69.4841 22.94C68.7707 22.7067 68.1707 22.3933 67.6841 22L68.5141 20.39C68.9741 20.75 69.4907 21.0333 70.0641 21.24C70.6441 21.4467 71.2141 21.55 71.7741 21.55C72.4207 21.55 72.9241 21.4367 73.2841 21.21C73.6441 20.9833 73.8241 20.6667 73.8241 20.26C73.8241 19.8733 73.6674 19.59 73.3541 19.41C73.0474 19.2233 72.4607 19.03 71.5941 18.83C70.3474 18.57 69.4407 18.2033 68.8741 17.73C68.3141 17.25 68.0341 16.5867 68.0341 15.74C68.0341 15.1467 68.1974 14.6233 68.5241 14.17C68.8574 13.71 69.3141 13.35 69.8941 13.09C70.4741 12.83 71.1441 12.7 71.9041 12.7C72.6441 12.7 73.3407 12.8067 73.9941 13.02C74.6474 13.2267 75.2141 13.52 75.6941 13.9L74.9141 15.52C74.6674 15.3 74.3807 15.11 74.0541 14.95C73.7274 14.79 73.3807 14.6667 73.0141 14.58C72.6541 14.4867 72.2941 14.44 71.9341 14.44C71.3741 14.44 70.9174 14.55 70.5641 14.77C70.2174 14.9833 70.0441 15.28 70.0441 15.66C70.0441 16.0533 70.2107 16.3433 70.5441 16.53C70.8774 16.7167 71.4507 16.9033 72.2641 17.09C73.5441 17.37 74.4607 17.7433 75.0141 18.21C75.5674 18.6767 75.8441 19.3233 75.8441 20.15C75.8441 20.7833 75.6741 21.3367 75.3341 21.81C74.9941 22.2767 74.5174 22.64 73.9041 22.9C73.2974 23.16 72.5907 23.29 71.7841 23.29ZM82.8469 23.3C81.7802 23.3 80.8435 23.0833 80.0369 22.65C79.2302 22.21 78.6002 21.5967 78.1469 20.81C77.7002 20.0233 77.4769 19.11 77.4769 18.07C77.4769 17.31 77.6069 16.61 77.8669 15.97C78.1269 15.3233 78.4935 14.7633 78.9669 14.29C79.4402 13.8167 79.9935 13.45 80.6269 13.19C81.2669 12.93 81.9635 12.8 82.7169 12.8C83.5369 12.8 84.2669 12.9467 84.9069 13.24C85.5469 13.5267 86.0769 13.93 86.4969 14.45C86.9235 14.97 87.2235 15.58 87.3969 16.28C87.5769 16.9733 87.6069 17.7267 87.4869 18.54H79.5869C79.5735 19.1333 79.7035 19.6533 79.9769 20.1C80.2502 20.54 80.6402 20.8833 81.1469 21.13C81.6602 21.3767 82.2635 21.5 82.9569 21.5C83.5169 21.5 84.0569 21.4167 84.5769 21.25C85.1035 21.0767 85.5802 20.8233 86.0069 20.49L86.8569 22.07C86.5369 22.33 86.1502 22.5533 85.6969 22.74C85.2435 22.92 84.7702 23.0567 84.2769 23.15C83.7835 23.25 83.3069 23.3 82.8469 23.3ZM79.7169 16.92H85.3269C85.3069 16.1733 85.0669 15.5867 84.6069 15.16C84.1535 14.7333 83.5069 14.52 82.6669 14.52C81.8535 14.52 81.1769 14.7333 80.6369 15.16C80.1035 15.5867 79.7969 16.1733 79.7169 16.92ZM90.0622 23V9H98.7122V11.05H92.3022V15.08H98.1122V17.08H92.3022V23H90.0622ZM105.386 23.3C104.319 23.3 103.383 23.0833 102.576 22.65C101.769 22.21 101.139 21.5967 100.686 20.81C100.239 20.0233 100.016 19.11 100.016 18.07C100.016 17.31 100.146 16.61 100.406 15.97C100.666 15.3233 101.033 14.7633 101.506 14.29C101.979 13.8167 102.533 13.45 103.166 13.19C103.806 12.93 104.503 12.8 105.256 12.8C106.076 12.8 106.806 12.9467 107.446 13.24C108.086 13.5267 108.616 13.93 109.036 14.45C109.463 14.97 109.763 15.58 109.936 16.28C110.116 16.9733 110.146 17.7267 110.026 18.54H102.126C102.113 19.1333 102.243 19.6533 102.516 20.1C102.789 20.54 103.179 20.8833 103.686 21.13C104.199 21.3767 104.803 21.5 105.496 21.5C106.056 21.5 106.596 21.4167 107.116 21.25C107.643 21.0767 108.119 20.8233 108.546 20.49L109.396 22.07C109.076 22.33 108.689 22.5533 108.236 22.74C107.783 22.92 107.309 23.0567 106.816 23.15C106.323 23.25 105.846 23.3 105.386 23.3ZM102.256 16.92H107.866C107.846 16.1733 107.606 15.5867 107.146 15.16C106.693 14.7333 106.046 14.52 105.206 14.52C104.393 14.52 103.716 14.7333 103.176 15.16C102.643 15.5867 102.336 16.1733 102.256 16.92ZM112.311 23V8.6H114.511V23H112.311ZM117.565 23V8.6H119.765V23H117.565ZM125.569 23.3C124.882 23.3 124.279 23.1733 123.759 22.92C123.239 22.66 122.832 22.2967 122.539 21.83C122.252 21.3567 122.109 20.8 122.109 20.16C122.109 19.62 122.246 19.1333 122.519 18.7C122.792 18.26 123.216 17.8967 123.789 17.61C124.369 17.3233 125.112 17.1333 126.019 17.04C126.926 16.94 128.016 16.9533 129.289 17.08L129.329 18.6C128.422 18.4733 127.642 18.42 126.989 18.44C126.336 18.46 125.799 18.5433 125.379 18.69C124.966 18.83 124.659 19.02 124.459 19.26C124.266 19.4933 124.169 19.7633 124.169 20.07C124.169 20.55 124.339 20.92 124.679 21.18C125.026 21.44 125.499 21.57 126.099 21.57C126.612 21.57 127.072 21.4767 127.479 21.29C127.886 21.1033 128.206 20.84 128.439 20.5C128.679 20.16 128.799 19.76 128.799 19.3V16.67C128.799 16.23 128.706 15.85 128.519 15.53C128.332 15.2033 128.049 14.95 127.669 14.77C127.289 14.59 126.816 14.5 126.249 14.5C125.729 14.5 125.216 14.58 124.709 14.74C124.202 14.8933 123.719 15.1367 123.259 15.47L122.639 13.85C123.259 13.43 123.906 13.1333 124.579 12.96C125.252 12.7867 125.899 12.7 126.519 12.7C127.439 12.7 128.226 12.8467 128.879 13.14C129.539 13.4267 130.046 13.8633 130.399 14.45C130.752 15.03 130.929 15.7633 130.929 16.65V23H128.949V21.83C128.616 22.3033 128.152 22.6667 127.559 22.92C126.966 23.1733 126.302 23.3 125.569 23.3Z" fill="white"/>
</svg>
