<svg width="157" height="31" viewBox="0 0 157 31" fill="none" xmlns="http://www.w3.org/2000/svg">
<path d="M26.3528 16.0334C27.0772 16.069 27.6429 16.6872 27.5295 17.4036C27.3079 18.8039 26.843 20.1583 26.1525 21.4042C25.2493 23.034 23.9841 24.4349 22.4544 25.499C20.9247 26.5631 19.1713 27.262 17.329 27.542C15.9207 27.7561 14.4892 27.7209 13.0993 27.4416C12.3882 27.2987 12.0053 26.5534 12.2239 25.8618C12.4425 25.1702 13.1801 24.7964 13.8951 24.9181C14.8975 25.0888 15.9236 25.0988 16.9344 24.9452C18.3793 24.7256 19.7547 24.1774 20.9545 23.3428C22.1543 22.5081 23.1466 21.4093 23.8551 20.131C24.3507 19.2367 24.6982 18.2712 24.8868 17.2721C25.0213 16.5594 25.6283 15.9978 26.3528 16.0334Z" fill="white"/>
<path d="M13.1475 22.2807C12.2417 24.8912 9.27632 26.3288 7.2446 24.4561C7.14831 24.3673 7.05337 24.2769 6.95984 24.1849C6.8663 24.093 6.77434 23.9996 6.68398 23.9048C4.7773 21.9048 6.16485 18.9157 8.75979 17.9662L12.5538 16.578C13.0534 16.3952 13.5964 16.6772 13.9757 17.0501C14.355 17.4231 14.646 17.9613 14.4717 18.4639L13.1475 22.2807Z" fill="#00E6E6"/>
<path d="M4.94527 18.0861C4.24078 18.2587 3.52226 17.8276 3.4265 17.1086C3.26643 15.9067 3.28638 14.6852 3.48787 13.4846C3.76199 11.8512 4.36631 10.291 5.26391 8.89911C6.1615 7.50726 7.33351 6.31309 8.7083 5.38957C10.0831 4.46606 11.6318 3.83262 13.2597 3.52796C14.8876 3.2233 16.5605 3.25383 18.1762 3.61768C19.792 3.98153 21.3165 4.67105 22.6567 5.6441C23.9969 6.61715 25.1245 7.85329 25.9707 9.27696C26.5928 10.3235 27.0531 11.4551 27.3385 12.6336C27.5092 13.3385 26.9953 14.0003 26.276 14.0941C25.5568 14.188 24.9065 13.6771 24.715 12.9776C24.4889 12.1519 24.1523 11.3583 23.7129 10.619C23.0491 9.50236 22.1646 8.53279 21.1135 7.76957C20.0623 7.00635 18.8665 6.46551 17.5992 6.18013C16.3319 5.89474 15.0197 5.8708 13.7429 6.10976C12.466 6.34872 11.2513 6.84557 10.1729 7.56993C9.09462 8.29429 8.17535 9.23095 7.47131 10.3227C6.76727 11.4144 6.29327 12.6382 6.07827 13.9193C5.93592 14.7675 5.90909 15.629 5.99691 16.4806C6.07132 17.2021 5.64976 17.9135 4.94527 18.0861Z" fill="white"/>
<path d="M36.53 23V13.1H45.88V23H43.68V14.92H38.73V23H36.53ZM51.6823 23.3C50.9957 23.3 50.3923 23.1733 49.8723 22.92C49.3523 22.66 48.9457 22.2967 48.6523 21.83C48.3657 21.3567 48.2223 20.8 48.2223 20.16C48.2223 19.62 48.359 19.1333 48.6323 18.7C48.9057 18.26 49.329 17.8967 49.9023 17.61C50.4823 17.3233 51.2257 17.1333 52.1323 17.04C53.039 16.94 54.129 16.9533 55.4023 17.08L55.4423 18.6C54.5357 18.4733 53.7557 18.42 53.1023 18.44C52.449 18.46 51.9123 18.5433 51.4923 18.69C51.079 18.83 50.7723 19.02 50.5723 19.26C50.379 19.4933 50.2823 19.7633 50.2823 20.07C50.2823 20.55 50.4523 20.92 50.7923 21.18C51.139 21.44 51.6123 21.57 52.2123 21.57C52.7257 21.57 53.1857 21.4767 53.5923 21.29C53.999 21.1033 54.319 20.84 54.5523 20.5C54.7923 20.16 54.9123 19.76 54.9123 19.3V16.67C54.9123 16.23 54.819 15.85 54.6323 15.53C54.4457 15.2033 54.1623 14.95 53.7823 14.77C53.4023 14.59 52.929 14.5 52.3623 14.5C51.8423 14.5 51.329 14.58 50.8223 14.74C50.3157 14.8933 49.8323 15.1367 49.3723 15.47L48.7523 13.85C49.3723 13.43 50.019 13.1333 50.6923 12.96C51.3657 12.7867 52.0123 12.7 52.6323 12.7C53.5523 12.7 54.339 12.8467 54.9923 13.14C55.6523 13.4267 56.159 13.8633 56.5123 14.45C56.8657 15.03 57.0423 15.7633 57.0423 16.65V23H55.0623V21.83C54.729 22.3033 54.2657 22.6667 53.6723 22.92C53.079 23.1733 52.4157 23.3 51.6823 23.3ZM59.9675 27.2V13.1H61.9475V14.49C62.3408 13.99 62.8442 13.5833 63.4575 13.27C64.0708 12.9567 64.8275 12.8 65.7275 12.8C66.6942 12.8 67.5508 13.03 68.2975 13.49C69.0508 13.9433 69.6375 14.5667 70.0575 15.36C70.4775 16.1467 70.6875 17.0433 70.6875 18.05C70.6875 18.7767 70.5675 19.46 70.3275 20.1C70.0875 20.7333 69.7442 21.29 69.2975 21.77C68.8575 22.25 68.3308 22.6267 67.7175 22.9C67.1108 23.1667 66.4375 23.3 65.6975 23.3C64.9242 23.3 64.2442 23.16 63.6575 22.88C63.0708 22.6 62.5708 22.2233 62.1575 21.75V27.2H59.9675ZM65.3275 21.35C65.9408 21.35 66.4842 21.2167 66.9575 20.95C67.4375 20.6767 67.8108 20.2933 68.0775 19.8C68.3508 19.3067 68.4875 18.7233 68.4875 18.05C68.4875 17.3767 68.3508 16.7933 68.0775 16.3C67.8042 15.8 67.4275 15.4167 66.9475 15.15C66.4742 14.8833 65.9342 14.75 65.3275 14.75C64.7142 14.75 64.1675 14.8833 63.6875 15.15C63.2142 15.4167 62.8408 15.8 62.5675 16.3C62.2942 16.7933 62.1575 17.3767 62.1575 18.05C62.1575 18.7233 62.2942 19.3067 62.5675 19.8C62.8408 20.2933 63.2142 20.6767 63.6875 20.95C64.1675 21.2167 64.7142 21.35 65.3275 21.35ZM77.5348 23.3C76.4948 23.3 75.5682 23.0733 74.7548 22.62C73.9415 22.16 73.3015 21.5367 72.8348 20.75C72.3748 19.9567 72.1448 19.0567 72.1448 18.05C72.1448 17.29 72.2815 16.5933 72.5548 15.96C72.8282 15.32 73.2148 14.7633 73.7148 14.29C74.2148 13.8167 74.8015 13.45 75.4748 13.19C76.1548 12.93 76.8915 12.8 77.6848 12.8C78.3515 12.8 78.9682 12.89 79.5348 13.07C80.1082 13.2433 80.6348 13.5133 81.1148 13.88L80.0548 15.56C79.7482 15.2867 79.3948 15.0833 78.9948 14.95C78.6015 14.8167 78.1815 14.75 77.7348 14.75C77.0415 14.75 76.4448 14.88 75.9448 15.14C75.4448 15.4 75.0548 15.7767 74.7748 16.27C74.5015 16.7567 74.3648 17.3467 74.3648 18.04C74.3648 19.0733 74.6648 19.8833 75.2648 20.47C75.8715 21.0567 76.6948 21.35 77.7348 21.35C78.2282 21.35 78.6948 21.26 79.1348 21.08C79.5748 20.8933 79.9415 20.65 80.2348 20.35L81.2848 22.02C80.7582 22.42 80.1715 22.7333 79.5248 22.96C78.8782 23.1867 78.2148 23.3 77.5348 23.3ZM87.632 23.3C86.5654 23.3 85.6287 23.0833 84.822 22.65C84.0154 22.21 83.3854 21.5967 82.932 20.81C82.4854 20.0233 82.262 19.11 82.262 18.07C82.262 17.31 82.392 16.61 82.652 15.97C82.912 15.3233 83.2787 14.7633 83.752 14.29C84.2254 13.8167 84.7787 13.45 85.412 13.19C86.052 12.93 86.7487 12.8 87.502 12.8C88.322 12.8 89.052 12.9467 89.692 13.24C90.332 13.5267 90.862 13.93 91.282 14.45C91.7087 14.97 92.0087 15.58 92.182 16.28C92.362 16.9733 92.392 17.7267 92.272 18.54H84.372C84.3587 19.1333 84.4887 19.6533 84.762 20.1C85.0354 20.54 85.4254 20.8833 85.932 21.13C86.4454 21.3767 87.0487 21.5 87.742 21.5C88.302 21.5 88.842 21.4167 89.362 21.25C89.8887 21.0767 90.3654 20.8233 90.792 20.49L91.642 22.07C91.322 22.33 90.9354 22.5533 90.482 22.74C90.0287 22.92 89.5554 23.0567 89.062 23.15C88.5687 23.25 88.092 23.3 87.632 23.3ZM84.502 16.92H90.112C90.092 16.1733 89.852 15.5867 89.392 15.16C88.9387 14.7333 88.292 14.52 87.452 14.52C86.6387 14.52 85.962 14.7333 85.422 15.16C84.8887 15.5867 84.582 16.1733 84.502 16.92ZM94.5573 27.2V13.1H96.5373V14.49C96.9307 13.99 97.434 13.5833 98.0473 13.27C98.6607 12.9567 99.4173 12.8 100.317 12.8C101.284 12.8 102.141 13.03 102.887 13.49C103.641 13.9433 104.227 14.5667 104.647 15.36C105.067 16.1467 105.277 17.0433 105.277 18.05C105.277 18.7767 105.157 19.46 104.917 20.1C104.677 20.7333 104.334 21.29 103.887 21.77C103.447 22.25 102.921 22.6267 102.307 22.9C101.701 23.1667 101.027 23.3 100.287 23.3C99.514 23.3 98.834 23.16 98.2473 22.88C97.6607 22.6 97.1607 22.2233 96.7473 21.75V27.2H94.5573ZM99.9173 21.35C100.531 21.35 101.074 21.2167 101.547 20.95C102.027 20.6767 102.401 20.2933 102.667 19.8C102.941 19.3067 103.077 18.7233 103.077 18.05C103.077 17.3767 102.941 16.7933 102.667 16.3C102.394 15.8 102.017 15.4167 101.537 15.15C101.064 14.8833 100.524 14.75 99.9173 14.75C99.304 14.75 98.7573 14.8833 98.2773 15.15C97.804 15.4167 97.4307 15.8 97.1573 16.3C96.884 16.7933 96.7473 17.3767 96.7473 18.05C96.7473 18.7233 96.884 19.3067 97.1573 19.8C97.4307 20.2933 97.804 20.6767 98.2773 20.95C98.7573 21.2167 99.304 21.35 99.9173 21.35ZM112.565 27.2V8.6H114.765V27.2H112.565ZM113.645 23.26C112.258 23.26 111.045 23.0633 110.005 22.67C108.971 22.27 108.168 21.6833 107.595 20.91C107.021 20.13 106.735 19.1767 106.735 18.05C106.735 16.9167 107.021 15.9633 107.595 15.19C108.175 14.4167 108.988 13.8333 110.035 13.44C111.081 13.04 112.301 12.84 113.695 12.84C115.101 12.84 116.321 13.0367 117.355 13.43C118.395 13.8233 119.201 14.4067 119.775 15.18C120.348 15.9533 120.635 16.91 120.635 18.05C120.635 18.8967 120.468 19.6467 120.135 20.3C119.801 20.9467 119.325 21.49 118.705 21.93C118.085 22.37 117.348 22.7033 116.495 22.93C115.641 23.15 114.691 23.26 113.645 23.26ZM113.685 21.44C114.705 21.44 115.565 21.3133 116.265 21.06C116.971 20.8067 117.508 20.43 117.875 19.93C118.241 19.43 118.425 18.8033 118.425 18.05C118.425 17.2967 118.235 16.67 117.855 16.17C117.481 15.6633 116.938 15.2867 116.225 15.04C115.518 14.7867 114.661 14.66 113.655 14.66C112.655 14.66 111.801 14.7867 111.095 15.04C110.388 15.2867 109.848 15.6633 109.475 16.17C109.101 16.67 108.915 17.2967 108.915 18.05C108.915 18.8033 109.101 19.43 109.475 19.93C109.855 20.43 110.398 20.8067 111.105 21.06C111.818 21.3133 112.678 21.44 113.685 21.44ZM127.456 23.3C126.39 23.3 125.453 23.0833 124.646 22.65C123.84 22.21 123.21 21.5967 122.756 20.81C122.31 20.0233 122.086 19.11 122.086 18.07C122.086 17.31 122.216 16.61 122.476 15.97C122.736 15.3233 123.103 14.7633 123.576 14.29C124.05 13.8167 124.603 13.45 125.236 13.19C125.876 12.93 126.573 12.8 127.326 12.8C128.146 12.8 128.876 12.9467 129.516 13.24C130.156 13.5267 130.686 13.93 131.106 14.45C131.533 14.97 131.833 15.58 132.006 16.28C132.186 16.9733 132.216 17.7267 132.096 18.54H124.196C124.183 19.1333 124.313 19.6533 124.586 20.1C124.86 20.54 125.25 20.8833 125.756 21.13C126.27 21.3767 126.873 21.5 127.566 21.5C128.126 21.5 128.666 21.4167 129.186 21.25C129.713 21.0767 130.19 20.8233 130.616 20.49L131.466 22.07C131.146 22.33 130.76 22.5533 130.306 22.74C129.853 22.92 129.38 23.0567 128.886 23.15C128.393 23.25 127.916 23.3 127.456 23.3ZM124.326 16.92H129.936C129.916 16.1733 129.676 15.5867 129.216 15.16C128.763 14.7333 128.116 14.52 127.276 14.52C126.463 14.52 125.786 14.7333 125.246 15.16C124.713 15.5867 124.406 16.1733 124.326 16.92ZM134.022 23.17L133.252 21.19C133.932 21.0167 134.428 20.7433 134.742 20.37C135.062 19.9967 135.262 19.4767 135.342 18.81C135.428 18.1433 135.472 17.2833 135.472 16.23V13.1H143.522V23H141.322V14.92H137.522V16.23C137.522 17.29 137.472 18.2133 137.372 19C137.278 19.7867 137.105 20.4567 136.852 21.01C136.598 21.5633 136.242 22.0167 135.782 22.37C135.328 22.7167 134.742 22.9833 134.022 23.17ZM149.339 23.3C148.652 23.3 148.049 23.1733 147.529 22.92C147.009 22.66 146.602 22.2967 146.309 21.83C146.022 21.3567 145.879 20.8 145.879 20.16C145.879 19.62 146.015 19.1333 146.289 18.7C146.562 18.26 146.985 17.8967 147.559 17.61C148.139 17.3233 148.882 17.1333 149.789 17.04C150.695 16.94 151.785 16.9533 153.059 17.08L153.099 18.6C152.192 18.4733 151.412 18.42 150.759 18.44C150.105 18.46 149.569 18.5433 149.149 18.69C148.735 18.83 148.429 19.02 148.229 19.26C148.035 19.4933 147.939 19.7633 147.939 20.07C147.939 20.55 148.109 20.92 148.449 21.18C148.795 21.44 149.269 21.57 149.869 21.57C150.382 21.57 150.842 21.4767 151.249 21.29C151.655 21.1033 151.975 20.84 152.209 20.5C152.449 20.16 152.569 19.76 152.569 19.3V16.67C152.569 16.23 152.475 15.85 152.289 15.53C152.102 15.2033 151.819 14.95 151.439 14.77C151.059 14.59 150.585 14.5 150.019 14.5C149.499 14.5 148.985 14.58 148.479 14.74C147.972 14.8933 147.489 15.1367 147.029 15.47L146.409 13.85C147.029 13.43 147.675 13.1333 148.349 12.96C149.022 12.7867 149.669 12.7 150.289 12.7C151.209 12.7 151.995 12.8467 152.649 13.14C153.309 13.4267 153.815 13.8633 154.169 14.45C154.522 15.03 154.699 15.7633 154.699 16.65V23H152.719V21.83C152.385 22.3033 151.922 22.6667 151.329 22.92C150.735 23.1733 150.072 23.3 149.339 23.3Z" fill="white"/>
</svg>
